<?xml version="1.0" encoding="UTF-8" standalone="no"?>
<svg
   version="1.1"
   width="3300"
   height="2000"
   id="svg122"
   sodipodi:docname="ballot-ballot_symbol.svg"
   inkscape:export-filename="ballot-ballot_symbol.png"
   inkscape:export-xdpi="96"
   inkscape:export-ydpi="96"
   inkscape:version="1.2.2 (b0a84865, 2022-12-01)"
   xmlns:inkscape="http://www.inkscape.org/namespaces/inkscape"
   xmlns:sodipodi="http://sodipodi.sourceforge.net/DTD/sodipodi-0.dtd"
   xmlns="http://www.w3.org/2000/svg"
   xmlns:svg="http://www.w3.org/2000/svg">
  <defs
     id="defs126" />
  <sodipodi:namedview
     id="namedview124"
     pagecolor="#ffffff"
     bordercolor="#000000"
     borderopacity="0.25"
     inkscape:showpageshadow="2"
     inkscape:pageopacity="0.0"
     inkscape:pagecheckerboard="0"
     inkscape:deskcolor="#d1d1d1"
     showgrid="false"
     inkscape:zoom="0.56032093"
     inkscape:cx="1699.0263"
     inkscape:cy="1190.3892"
     inkscape:window-width="1309"
     inkscape:window-height="818"
     inkscape:window-x="0"
     inkscape:window-y="37"
     inkscape:window-maximized="0"
     inkscape:current-layer="Symbols" />
  <g
     id="Symbols">
    <g
       id="Light-L"
       transform="matrix(17.82951,0,0,17.82951,101.09855,1619.4586)">
      <path
         d="m 74.224665,-48.750167 h 34.284005 v -7.31817 H 74.224665 Z m 0,34.296423 h 34.284005 v -7.31817 H 74.224665 Z M 56.618261,-45.264749 q 2.955552,0 5.04648,-2.083188 2.090929,-2.083189 2.090929,-5.061315 0,-2.900565 -2.079964,-4.991494 -2.079963,-2.090929 -5.053575,-2.090929 -2.973611,0 -5.03358,2.090929 -2.059807,2.090929 -2.059807,5.022454 0,2.931686 2.067063,5.022615 2.067064,2.090928 5.022454,2.090928 z m 0,34.296424 q 2.955552,0 5.04648,-2.083189 2.090929,-2.083188 2.090929,-5.061315 0,-2.900565 -2.079964,-4.991493 -2.079963,-2.090929 -5.053575,-2.090929 -2.973611,0 -5.03358,2.090929 -2.059807,2.090928 -2.059807,5.022615 0,2.931525 2.067063,5.022453 2.067064,2.090929 5.022454,2.090929 z M 31.878157,19.594839 q -3.794051,0 -6.548523,-2.754473 -2.754473,-2.754472 -2.754473,-6.548523 v -91.043685 q 0,-3.794052 2.754473,-6.548524 2.754472,-2.754473 6.548523,-2.754473 h 91.043683 q 3.79405,0 6.54853,2.754473 2.75447,2.754472 2.75447,6.548524 v 91.043685 q 0,3.794051 -2.75447,6.548523 -2.75448,2.754473 -6.54853,2.754473 z m 0,-7.31817 h 91.043683 q 0.74433,0 1.36466,-0.620168 0.62017,-0.620328 0.62017,-1.364658 v -91.043685 q 0,-0.74433 -0.62017,-1.364659 -0.62033,-0.620168 -1.36466,-0.620168 H 31.878157 q -0.744329,0 -1.364658,0.620168 -0.620168,0.620329 -0.620168,1.364659 v 91.043685 q 0,0.74433 0.620168,1.364658 0.620329,0.620168 1.364658,0.620168 z"
         id="path70" />
    </g>
    <g
       id="Semibold-M"
       transform="matrix(1 0 0 1 1985.97 1126)" />
  </g>
</svg>
