<?xml version="1.0" encoding="UTF-8" standalone="no"?>
<svg
   version="1.1"
   width="3300"
   height="2000"
   id="svg122"
   sodipodi:docname="info-info_symbol.svg"
   inkscape:version="1.2.2 (b0a84865, 2022-12-01)"
   inkscape:export-filename="info-info_symbol.png"
   inkscape:export-xdpi="96"
   inkscape:export-ydpi="96"
   xmlns:inkscape="http://www.inkscape.org/namespaces/inkscape"
   xmlns:sodipodi="http://sodipodi.sourceforge.net/DTD/sodipodi-0.dtd"
   xmlns="http://www.w3.org/2000/svg"
   xmlns:svg="http://www.w3.org/2000/svg">
  <defs
     id="defs126" />
  <sodipodi:namedview
     id="namedview124"
     pagecolor="#ffffff"
     bordercolor="#000000"
     borderopacity="0.25"
     inkscape:showpageshadow="2"
     inkscape:pageopacity="0.0"
     inkscape:pagecheckerboard="0"
     inkscape:deskcolor="#d1d1d1"
     showgrid="false"
     inkscape:zoom="0.2835433"
     inkscape:cx="1451.2775"
     inkscape:cy="1105.6512"
     inkscape:window-width="1470"
     inkscape:window-height="817"
     inkscape:window-x="0"
     inkscape:window-y="37"
     inkscape:window-maximized="0"
     inkscape:current-layer="svg122" />
  <g
     id="Symbols"
     transform="matrix(1.065278,0,0,1.065278,-17.518178,-156.16006)">
    <g
       id="Light-L"
       transform="matrix(14.975165,0,0,14.975165,531.21774,1421.0621)">
      <path
         d="m 40.422761,8.3603783 h 7.318008 V -28.726961 H 40.422761 Z M 43.719194,-39.0468 q 1.857278,0 3.125509,-1.220017 1.268232,-1.219856 1.268232,-3.071651 0,-1.926938 -1.265329,-3.208553 -1.26549,-1.281615 -3.122607,-1.281615 -1.919197,0 -3.156468,1.281615 -1.237271,1.281615 -1.237271,3.208553 0,1.851795 1.265328,3.071651 1.26549,1.220017 3.122606,1.220017 z m 0.0566,78.044678 q -12.731494,0 -23.848391,-4.8246 Q 8.8105054,29.348678 0.45565838,20.997541 -7.8993486,12.646242 -12.726046,1.5222495 q -4.826696,-11.123992 -4.826696,-23.8690315 0,-12.683119 4.8246,-23.84307 Q -7.9035416,-57.349803 0.44759638,-65.624025 8.7988954,-73.898407 19.922887,-78.725103 31.04688,-83.5518 43.791918,-83.5518 q 12.683119,0 23.843069,4.8246 11.15995,4.8246 19.43417,13.095113 8.27439,8.270674 13.101083,19.451426 4.8267,11.180591 4.8267,23.850004 0,12.7314945 -4.8246,23.8483915 -4.824603,11.1168975 -13.095113,19.4420735 -8.27068,8.325176 -19.45143,13.181542 -11.180591,4.856528 -23.850004,4.856528 z m 0.02693,-7.31817 q 22.44471,0 38.160453,-15.765251 15.71559,-15.76525153 15.71559,-38.272043 0,-22.44471 -15.68543,-38.160457 -15.685436,-15.715587 -38.27124,-15.715587 -22.426166,0 -38.1914176,15.685433 -15.7652514,15.685432 -15.7652514,38.271236 0,22.42616647 15.7652514,38.191418 15.7652516,15.765251 38.2720426,15.765251 z"
         id="path70" />
    </g>
  </g>
</svg>
